<svg width="580" height="438" viewBox="0 0 580 438" fill="none" xmlns="http://www.w3.org/2000/svg">
<rect opacity="0.5" width="122.146" height="14.8719" rx="7.43594" transform="matrix(0.877049 -0.480401 0.519859 0.854252 464.907 59.0154)" fill="url(#paint0_linear_0_741)"/>
<rect opacity="0.5" width="122.146" height="14.8719" rx="7.43594" transform="matrix(0.877049 -0.480401 0.519859 0.854252 418.52 424.78)" fill="url(#paint1_linear_0_741)"/>
<rect opacity="0.5" width="122.146" height="14.8719" rx="7.43594" transform="matrix(0.877049 -0.480401 0.519859 0.854252 336.053 94.2224)" fill="url(#paint2_linear_0_741)"/>
<rect opacity="0.5" width="62.0026" height="12.2946" rx="6.14728" transform="matrix(0.877049 -0.480401 0.519859 0.854252 158.749 387.085)" fill="url(#paint3_linear_0_741)"/>
<rect opacity="0.5" width="101.788" height="20.1837" rx="10.0918" transform="matrix(0.877049 -0.480401 0.519859 0.854252 0 182.241)" fill="url(#paint4_linear_0_741)"/>
<defs>
<linearGradient id="paint0_linear_0_741" x1="122.146" y1="0" x2="0" y2="0" gradientUnits="userSpaceOnUse">
<stop stop-color="white" stop-opacity="0.01"/>
<stop offset="1" stop-color="#06CCE2"/>
<stop offset="1" stop-color="white"/>
</linearGradient>
<linearGradient id="paint1_linear_0_741" x1="122.146" y1="0" x2="0" y2="0" gradientUnits="userSpaceOnUse">
<stop stop-color="white" stop-opacity="0.01"/>
<stop offset="1" stop-color="#FA7564"/>
<stop offset="1" stop-color="white"/>
</linearGradient>
<linearGradient id="paint2_linear_0_741" x1="122.146" y1="0" x2="0" y2="0" gradientUnits="userSpaceOnUse">
<stop stop-color="white" stop-opacity="0.01"/>
<stop offset="1" stop-color="white"/>
<stop offset="1" stop-color="white"/>
</linearGradient>
<linearGradient id="paint3_linear_0_741" x1="62.0026" y1="0" x2="0" y2="0" gradientUnits="userSpaceOnUse">
<stop stop-color="white" stop-opacity="0.01"/>
<stop offset="1" stop-color="white"/>
<stop offset="1" stop-color="white"/>
</linearGradient>
<linearGradient id="paint4_linear_0_741" x1="101.788" y1="0" x2="0" y2="0" gradientUnits="userSpaceOnUse">
<stop stop-color="white" stop-opacity="0.01"/>
<stop offset="1" stop-color="#644BD9"/>
<stop offset="1" stop-color="white"/>
</linearGradient>
</defs>
</svg>
