<svg width="546" height="533" viewBox="0 0 546 533" fill="none" xmlns="http://www.w3.org/2000/svg">
<path fill-rule="evenodd" clip-rule="evenodd" d="M65.4208 433.024C49.0577 449.564 17.9787 446.617 17.9999 472.18C18.0175 494.851 43.9325 505.453 62.3803 512.07C123.057 533.828 172.358 541.162 231.433 519.115C272.236 503.895 487.786 380.523 517.641 361.046C558.772 334.205 467.123 308.779 414.827 300.256C338.292 287.776 65.4208 433.024 65.4208 433.024Z" fill="#FA7564"/>
<path fill-rule="evenodd" clip-rule="evenodd" d="M384.106 193.695C411.369 159.03 400.893 128.018 396.142 89.9437C393.267 66.9139 390.632 25.7588 365.119 10.8112C341.366 -3.11285 301.779 -2.41321 279.416 7.80234C214.56 37.4426 107.793 102.634 54.6857 145.595C8.37241 183.055 15.5081 230.724 25.0001 278.924C29.381 301.161 54.3471 341.072 86.1915 344.453C121.249 348.179 353.384 232.751 384.106 193.695Z" fill="#02ECF1"/>
<path fill-rule="evenodd" clip-rule="evenodd" d="M390 252.553H438V191.918H390V252.553Z" fill="#02ECF1"/>
<path fill-rule="evenodd" clip-rule="evenodd" d="M400.025 198.97L400.796 198.649C401.078 198.536 401.326 198.444 401.552 198.365C402.132 198.814 402.038 198.877 402.191 199.404L395.873 202.23V202.246L398.599 203.462C399.959 204.074 401.152 204.616 402.183 205.057C402.03 205.605 402.155 205.648 401.544 206.118C401.203 206.004 400.897 205.877 400.628 205.755C398.825 204.951 396.498 203.925 393.625 202.63V202.21C393.625 202.16 393.72 202.095 393.924 202.009C393.844 202.038 393.771 202.059 393.699 202.088V201.996C393.699 201.91 393.713 201.818 393.822 201.754L400.025 198.97Z" fill="white"/>
<path fill-rule="evenodd" clip-rule="evenodd" d="M400.025 239.278L400.796 238.957C401.078 238.844 401.326 238.752 401.552 238.673C402.132 239.122 402.038 239.185 402.191 239.712L395.873 242.538V242.554L398.599 243.77C399.959 244.382 401.152 244.924 402.183 245.365C402.03 245.913 402.155 245.956 401.544 246.426C401.203 246.311 400.897 246.184 400.628 246.062C398.825 245.258 396.498 244.233 393.625 242.938V242.517C393.625 242.468 393.72 242.403 393.924 242.317C393.844 242.346 393.771 242.368 393.699 242.396V242.304C393.699 242.218 393.713 242.125 393.822 242.061L400.025 239.278Z" fill="white"/>
<path fill-rule="evenodd" clip-rule="evenodd" d="M408.723 203.256H433.293V200.723H408.723V203.256Z" fill="white"/>
<path fill-rule="evenodd" clip-rule="evenodd" d="M414.21 212.119H433.293V209.587H414.21V212.119Z" fill="white"/>
<path fill-rule="evenodd" clip-rule="evenodd" d="M422.832 219.717H433.293V217.185H422.832V219.717Z" fill="white"/>
<path fill-rule="evenodd" clip-rule="evenodd" d="M408.723 243.565H433.293V241.032H408.723V243.565Z" fill="white"/>
<path fill-rule="evenodd" clip-rule="evenodd" d="M414.21 234.701H433.293V232.169H414.21V234.701Z" fill="white"/>
<path fill-rule="evenodd" clip-rule="evenodd" d="M422.832 227.103H433.293V224.571H422.832V227.103Z" fill="white"/>
<path fill-rule="evenodd" clip-rule="evenodd" d="M405.597 238.136L403.038 247.159L404.876 247.304L407.434 238.281L405.597 238.136Z" fill="white"/>
<path fill-rule="evenodd" clip-rule="evenodd" d="M422.173 259.057L423.138 267.083L428.912 281.76L423.632 283.35L419.571 268.042L419.04 259.411L422.173 259.057Z" fill="#250F8A"/>
<path fill-rule="evenodd" clip-rule="evenodd" d="M434.512 297.868L431.933 323.411L432.792 345.865H423.906L423.428 344.194L429.519 343.398L426.27 323.515L423.339 298.79L434.512 297.868Z" fill="white"/>
<path fill-rule="evenodd" clip-rule="evenodd" d="M437.447 297.582L439.468 319.34L453.072 337.036L451.448 345.386H447.387L449.823 343.597L450.23 338.228L437.235 323.913L425.458 298.266L437.447 297.582Z" fill="#E7EEFA"/>
<path fill-rule="evenodd" clip-rule="evenodd" d="M413.013 262.479L415.85 263.399C417.004 266.671 418.926 269.632 421.463 272.045L426.773 277.097L433.31 281.42L438.166 299.06L422.974 300.464L422.472 281.027L416.832 274.122C414.512 271.284 412.943 267.93 412.263 264.356L413.013 262.479Z" fill="#250F8A"/>
<path fill-rule="evenodd" clip-rule="evenodd" d="M416.147 264.367L412.411 265.665L409.999 253.272L410.724 252.22L416.147 264.367Z" fill="#FFD0D4"/>
<path fill-rule="evenodd" clip-rule="evenodd" d="M416.991 264.132L412.29 266.374C412.29 266.374 411.326 265.548 411.445 265.076C411.566 264.604 411.807 264.25 412.169 264.014C412.531 263.777 416.148 262.479 416.148 262.479L416.991 264.132Z" fill="#472BC7"/>
<path fill-rule="evenodd" clip-rule="evenodd" d="M419.04 259.411L418.8 252.801H421.451L422.173 259.057L419.04 259.411Z" fill="#FFD0D4"/>
<path fill-rule="evenodd" clip-rule="evenodd" d="M412.982 252.673C412.946 252.649 411.283 251.754 411.248 251.638C411.213 251.521 410.037 248.743 410.037 248.743L408.345 248.977L408.827 253.541L411.158 254.091L412.982 252.673Z" fill="#FFD0D4"/>
<path fill-rule="evenodd" clip-rule="evenodd" d="M437.366 273.672C436.233 276.214 432.564 278.829 429.967 277.719C427.371 276.61 426.833 272.197 427.965 269.655C429.098 267.113 432.12 265.951 434.716 267.061C437.312 268.17 438.499 271.13 437.366 273.672Z" fill="#FFD0D4"/>
<path fill-rule="evenodd" clip-rule="evenodd" d="M429.626 268.104C429.176 267.792 428.71 267.503 428.228 267.239C427.881 267.051 427.337 266.935 427.183 267.292C427.108 267.47 427.187 267.67 427.266 267.845C427.528 268.432 427.817 269.05 428.354 269.418C428.806 269.727 429.409 269.815 429.934 269.647C430.408 269.496 430.871 269.143 430.92 268.665C430.444 268.574 430.024 268.381 429.626 268.104Z" fill="#FFD0D4"/>
<path fill-rule="evenodd" clip-rule="evenodd" d="M430.544 277.898C433.079 278.448 436.315 276.031 437.366 273.672C438.498 271.129 437.313 268.169 434.717 267.061C434.56 266.993 434.398 266.961 434.239 266.911C433.942 267.219 433.702 267.585 433.595 267.933C433.177 269.291 433.494 270.895 434.371 272.024C434.371 272.024 431.434 277.444 430.544 277.898Z" fill="black"/>
<path fill-rule="evenodd" clip-rule="evenodd" d="M434.713 272.837C435.091 273.03 435.382 273.363 435.563 273.739C436.154 274.95 434.753 276.139 433.558 275.981C433.172 275.931 432.806 275.779 432.469 275.587C432.179 275.42 431.895 275.205 431.765 274.899C431.639 274.604 431.68 274.259 431.816 273.969C431.952 273.679 432.178 273.437 432.421 273.225C432.977 272.74 434.03 272.489 434.713 272.837Z" fill="#FFD0D4"/>
<path fill-rule="evenodd" clip-rule="evenodd" d="M120.964 410.65H378.218V145.824H120.964V410.65Z" fill="#FFDA4F"/>
<path fill-rule="evenodd" clip-rule="evenodd" d="M114.367 410.65H371.621V145.824H114.367V410.65Z" fill="white"/>
<path fill-rule="evenodd" clip-rule="evenodd" d="M114.367 166.451H371.621V145.824H114.367V166.451Z" fill="#FFCA00"/>
<path fill-rule="evenodd" clip-rule="evenodd" d="M193.079 348.124C192.746 348.036 192.412 347.992 192.081 347.976C192.009 347.974 191.938 347.983 191.867 347.983C191.599 347.983 191.333 348.001 191.073 348.047C191.022 348.055 190.974 348.07 190.922 348.081C190.635 348.141 190.358 348.226 190.089 348.338C190.071 348.346 190.053 348.353 190.034 348.362C188.812 348.889 187.826 349.91 187.444 351.27C186.777 353.662 187.832 357.498 190.274 358.153C191.408 358.458 192.641 358.017 193.705 357.224C193.705 357.224 193.706 357.221 193.707 357.221C194.111 356.92 194.488 356.57 194.828 356.187C194.84 356.172 194.852 356.157 194.866 356.143C195.012 355.974 195.152 355.799 195.284 355.62C195.303 355.594 195.324 355.567 195.343 355.539C195.48 355.348 195.607 355.153 195.721 354.955C195.737 354.929 195.748 354.904 195.764 354.877C195.858 354.71 195.942 354.541 196.017 354.371C196.04 354.32 196.062 354.27 196.084 354.22C196.165 354.026 196.236 353.832 196.29 353.641C196.457 353.044 196.493 352.44 196.414 351.863C196.177 350.128 194.911 348.616 193.079 348.124Z" fill="#E5FDFD"/>
<path fill-rule="evenodd" clip-rule="evenodd" d="M182.396 333.024H203.056V333.026C203.056 333.898 203.606 334.642 204.384 334.951L195.622 359.368L186.774 358.675L181.297 334.213C181.81 333.978 182.206 333.55 182.396 333.024ZM178.809 333.694L178.632 333.719L181.818 360.409L184.296 385.365L186.4 410.65H190.087L191.061 385.083L193.475 384.983L195.027 410.65H199.266L200.932 384.672L200.578 361.449L207.304 334.067L207.031 334.028C207.199 333.73 207.304 333.393 207.304 333.026V333.024H222.984V288.011H163.448V333.024H178.408C178.498 333.274 178.634 333.499 178.809 333.694Z" fill="#E5FDFD"/>
<path fill-rule="evenodd" clip-rule="evenodd" d="M289.127 332.003L292.107 349.564H285.79L288.77 332.003H289.127ZM317.236 332.003L314.256 349.564H293.342L290.362 332.003H317.236ZM318.829 332.003L321.809 349.564H315.491L318.471 332.003H318.829ZM323.971 362.289H313.33L315.289 350.757H322.012L323.971 362.289ZM326.129 375.013H311.172L313.128 363.482H324.173L326.129 375.013ZM328.288 387.736H309.012L310.969 376.205H326.332L328.288 387.736ZM330.449 400.461H306.852L308.808 388.929H328.492L330.449 400.461ZM305.616 400.461H301.982L300.024 388.929H307.574L305.616 400.461ZM277.15 400.461L279.107 388.929H298.79L300.748 400.461H277.15ZM281.267 376.205H296.63L298.588 387.736H279.309L281.267 376.205ZM283.427 363.482H294.47L296.427 375.013H281.47L283.427 363.482ZM295.502 362.289L293.544 350.757H314.054L312.096 362.289H295.502ZM309.734 376.205L307.777 387.736H299.822L297.866 376.205H309.734ZM297.662 375.013L295.704 363.482H311.893L309.936 375.013H297.662ZM285.587 350.757H292.309L294.268 362.289H283.629L285.587 350.757ZM274.185 410.65H275.42L276.947 401.654H300.95L302.477 410.65H303.712L302.186 401.654H305.414L303.886 410.65H305.122L306.649 401.654H330.652L332.179 410.65H333.413L320.065 332.003H322.634V328.424H286.085V332.003H287.535L274.185 410.65Z" fill="black"/>
<path fill-rule="evenodd" clip-rule="evenodd" d="M461.814 248.131H510.121V128.096H461.814V248.131Z" fill="#FFCA00"/>
<path fill-rule="evenodd" clip-rule="evenodd" d="M473.187 134.137L473.959 133.816C474.242 133.703 474.489 133.611 474.715 133.532C475.296 133.981 475.201 134.044 475.354 134.571L469.036 137.397V137.413L471.762 138.629C473.122 139.241 474.315 139.783 475.347 140.224C475.193 140.772 475.318 140.815 474.707 141.285C474.366 141.17 474.06 141.043 473.791 140.922C471.988 140.117 469.661 139.092 466.789 137.797V137.377C466.789 137.327 466.884 137.262 467.087 137.178C467.008 137.205 466.934 137.226 466.863 137.255V137.163C466.863 137.077 466.876 136.984 466.986 136.92L473.187 134.137Z" fill="white"/>
<path fill-rule="evenodd" clip-rule="evenodd" d="M473.187 174.445L473.959 174.124C474.242 174.011 474.489 173.918 474.715 173.84C475.296 174.289 475.201 174.352 475.354 174.879L469.036 177.705V177.719L471.762 178.937C473.122 179.549 474.315 180.091 475.347 180.532C475.193 181.08 475.318 181.123 474.707 181.593C474.366 181.478 474.06 181.351 473.791 181.229C471.988 180.425 469.661 179.4 466.789 178.105V177.684C466.789 177.635 466.884 177.57 467.087 177.484C467.008 177.513 466.934 177.535 466.863 177.563V177.471C466.863 177.385 466.876 177.292 466.986 177.228L473.187 174.445Z" fill="white"/>
<path fill-rule="evenodd" clip-rule="evenodd" d="M481.887 138.423H506.457V135.89H481.887V138.423Z" fill="white"/>
<path fill-rule="evenodd" clip-rule="evenodd" d="M487.374 147.286H506.457V144.754H487.374V147.286Z" fill="white"/>
<path fill-rule="evenodd" clip-rule="evenodd" d="M495.995 154.884H506.457V152.352H495.995V154.884Z" fill="white"/>
<path fill-rule="evenodd" clip-rule="evenodd" d="M481.887 178.732H506.457V176.199H481.887V178.732Z" fill="white"/>
<path fill-rule="evenodd" clip-rule="evenodd" d="M487.374 169.867H506.457V167.335H487.374V169.867Z" fill="white"/>
<path fill-rule="evenodd" clip-rule="evenodd" d="M495.995 162.271H506.457V159.738H495.995V162.271Z" fill="white"/>
<path fill-rule="evenodd" clip-rule="evenodd" d="M478.76 173.303L476.201 182.326L478.04 182.471L480.598 173.448L478.76 173.303Z" fill="white"/>
<path fill-rule="evenodd" clip-rule="evenodd" d="M473.187 188.91L473.959 188.59C474.242 188.476 474.489 188.384 474.715 188.306C475.296 188.754 475.201 188.817 475.354 189.345L469.036 192.171V192.186L471.762 193.403C473.122 194.015 474.315 194.557 475.347 194.998C475.193 195.546 475.318 195.588 474.707 196.058C474.366 195.944 474.06 195.816 473.791 195.696C471.988 194.891 469.661 193.866 466.789 192.57V192.149C466.789 192.1 466.884 192.036 467.087 191.95C467.008 191.979 466.934 192 466.863 192.029V191.937C466.863 191.851 466.876 191.758 466.986 191.694L473.187 188.91Z" fill="white"/>
<path fill-rule="evenodd" clip-rule="evenodd" d="M473.187 229.219L473.959 228.898C474.242 228.784 474.489 228.691 474.715 228.614C475.296 229.062 475.201 229.126 475.354 229.653L469.036 232.479V232.493L471.762 233.711C473.122 234.323 474.315 234.865 475.347 235.306C475.193 235.854 475.318 235.897 474.707 236.367C474.366 236.252 474.06 236.124 473.791 236.003C471.988 235.199 469.661 234.174 466.789 232.877V232.457C466.789 232.408 466.884 232.344 467.087 232.258C467.008 232.287 466.934 232.308 466.863 232.337V232.245C466.863 232.159 466.876 232.066 466.986 232.002L473.187 229.219Z" fill="white"/>
<path fill-rule="evenodd" clip-rule="evenodd" d="M481.887 193.197H506.457V190.665H481.887V193.197Z" fill="white"/>
<path fill-rule="evenodd" clip-rule="evenodd" d="M487.374 202.061H506.457V199.528H487.374V202.061Z" fill="white"/>
<path fill-rule="evenodd" clip-rule="evenodd" d="M495.995 209.657H506.457V207.125H495.995V209.657Z" fill="white"/>
<path fill-rule="evenodd" clip-rule="evenodd" d="M481.887 233.505H506.457V230.972H481.887V233.505Z" fill="white"/>
<path fill-rule="evenodd" clip-rule="evenodd" d="M487.374 224.641H506.457V222.109H487.374V224.641Z" fill="white"/>
<path fill-rule="evenodd" clip-rule="evenodd" d="M495.995 217.044H506.457V214.511H495.995V217.044Z" fill="white"/>
<path fill-rule="evenodd" clip-rule="evenodd" d="M478.76 228.076L476.201 237.099L478.04 237.245L480.598 228.221L478.76 228.076Z" fill="white"/>
<path fill-rule="evenodd" clip-rule="evenodd" d="M145.172 344.953H204.709V299.941H145.172V344.953Z" fill="#02ECF1"/>
<path fill-rule="evenodd" clip-rule="evenodd" d="M305.405 425.305L289.229 330.004L290.43 329.808L306.606 425.109L305.405 425.305Z" fill="black"/>
<path fill-rule="evenodd" clip-rule="evenodd" d="M275.703 425.305L259.526 330.004L260.727 329.808L276.905 425.109L275.703 425.305Z" fill="black"/>
<path fill-rule="evenodd" clip-rule="evenodd" d="M263.573 350.757H293.54V349.564H263.573V350.757Z" fill="black"/>
<path fill-rule="evenodd" clip-rule="evenodd" d="M265.696 363.482H295.664V362.289H265.696V363.482Z" fill="black"/>
<path fill-rule="evenodd" clip-rule="evenodd" d="M267.818 376.206H297.785V375.013H267.818V376.206Z" fill="black"/>
<path fill-rule="evenodd" clip-rule="evenodd" d="M269.939 388.929H299.906V387.736H269.939V388.929Z" fill="black"/>
<path fill-rule="evenodd" clip-rule="evenodd" d="M272.06 401.654H302.027V400.461H272.06V401.654Z" fill="black"/>
<path fill-rule="evenodd" clip-rule="evenodd" d="M274.181 414.378H304.149V413.185H274.181V414.378Z" fill="black"/>
<path fill-rule="evenodd" clip-rule="evenodd" d="M243.671 425.305L242.47 425.109L258.646 329.808L259.848 330.004L243.671 425.305Z" fill="#525252"/>
<path fill-rule="evenodd" clip-rule="evenodd" d="M273.373 425.305L272.172 425.109L288.348 329.808L289.549 330.004L273.373 425.305Z" fill="#525252"/>
<path fill-rule="evenodd" clip-rule="evenodd" d="M255.534 350.757H285.501V349.564H255.534V350.757Z" fill="#525252"/>
<path fill-rule="evenodd" clip-rule="evenodd" d="M253.413 363.482H283.38V362.289H253.413V363.482Z" fill="#525252"/>
<path fill-rule="evenodd" clip-rule="evenodd" d="M251.291 376.206H281.258V375.013H251.291V376.206Z" fill="#525252"/>
<path fill-rule="evenodd" clip-rule="evenodd" d="M249.17 388.929H279.137V387.736H249.17V388.929Z" fill="#525252"/>
<path fill-rule="evenodd" clip-rule="evenodd" d="M247.048 401.654H277.015V400.461H247.048V401.654Z" fill="#525252"/>
<path fill-rule="evenodd" clip-rule="evenodd" d="M244.927 414.378H274.894V413.185H244.927V414.378Z" fill="#525252"/>
<path fill-rule="evenodd" clip-rule="evenodd" d="M256.824 332.003H293.372V328.424H256.824V332.003Z" fill="black"/>
<path fill-rule="evenodd" clip-rule="evenodd" d="M389.992 472.023L387.514 447.067L384.328 420.378L386.806 420.032L392.47 445.334L401.319 446.027L410.522 420.378L413 420.725L406.274 448.106L406.628 471.33L389.992 472.023Z" fill="#FFCA00"/>
<path fill-rule="evenodd" clip-rule="evenodd" d="M393.141 437.929C392.472 440.32 393.527 444.158 395.97 444.813C398.412 445.467 401.318 442.692 401.987 440.3C402.656 437.908 401.218 435.438 398.775 434.783C396.332 434.128 393.81 435.537 393.141 437.929Z" fill="#FFD0D4"/>
<path fill-rule="evenodd" clip-rule="evenodd" d="M396.407 436.548C395.907 436.414 395.208 436.077 394.941 435.618C394.915 435.575 394.906 435.533 394.89 435.491C395.975 434.724 397.382 434.41 398.774 434.784C401.218 435.437 402.655 437.909 401.986 440.301C401.509 442.008 399.89 443.905 398.115 444.616C398.148 444.133 398.267 443.655 398.392 443.187C398.899 441.295 399.463 439.419 400.083 437.562C398.832 437.317 397.602 436.977 396.407 436.548Z" fill="black"/>
<path fill-rule="evenodd" clip-rule="evenodd" d="M399.261 440.205C399.591 439.969 400.045 439.86 400.422 440.019C400.508 440.056 400.591 440.106 400.658 440.173C400.841 440.35 400.894 440.622 400.871 440.874C400.809 441.568 400.227 442.15 399.547 442.357C399.355 442.415 399.15 442.447 398.95 442.418C398.75 442.388 398.555 442.291 398.44 442.129C398.013 441.531 398.784 440.544 399.261 440.205Z" fill="#FFD0D4"/>
<path fill-rule="evenodd" clip-rule="evenodd" d="M406.629 471.33L404.171 509.608H401.468L399.172 471.642L396.756 471.742L395.281 510.544L393.194 510.496L389.992 472.023L389.521 467.283L406.569 467.501L406.629 471.33Z" fill="white"/>
<path fill-rule="evenodd" clip-rule="evenodd" d="M404.172 509.607L410.118 510.249L409.903 511.152H401.196L401.467 509.607H404.172Z" fill="#250F8A"/>
<path fill-rule="evenodd" clip-rule="evenodd" d="M395.28 510.544V511.631L387.112 511.934V510.933L393.193 510.496L395.28 510.544Z" fill="#250F8A"/>
<path fill-rule="evenodd" clip-rule="evenodd" d="M388.221 418.992C388.221 420.141 387.271 421.071 386.098 421.071C384.925 421.071 383.975 420.141 383.975 418.992C383.975 417.843 384.925 416.913 386.098 416.913C387.271 416.913 388.221 417.843 388.221 418.992Z" fill="#FFD0D4"/>
<path fill-rule="evenodd" clip-rule="evenodd" d="M412.999 419.685C412.999 420.834 412.049 421.764 410.876 421.764C409.703 421.764 408.753 420.834 408.753 419.685C408.753 418.536 409.703 417.606 410.876 417.606C412.049 417.606 412.999 418.536 412.999 419.685Z" fill="#FFD0D4"/>
<path fill-rule="evenodd" clip-rule="evenodd" d="M166.021 397.295L163.543 372.339L160.357 345.65L162.835 345.302L168.499 370.606L177.347 371.299L186.551 345.65L189.029 345.997L182.303 373.378L182.657 396.602L166.021 397.295Z" fill="#2D109F"/>
<path fill-rule="evenodd" clip-rule="evenodd" d="M164.25 344.263C164.25 345.412 163.3 346.342 162.127 346.342C160.954 346.342 160.003 345.412 160.003 344.263C160.003 343.114 160.954 342.184 162.127 342.184C163.3 342.184 164.25 343.114 164.25 344.263Z" fill="#FFD0D4"/>
<path fill-rule="evenodd" clip-rule="evenodd" d="M189.028 344.956C189.028 346.105 188.078 347.036 186.905 347.036C185.732 347.036 184.781 346.105 184.781 344.956C184.781 343.808 185.732 342.877 186.905 342.877C188.078 342.877 189.028 343.808 189.028 344.956Z" fill="#FFD0D4"/>
<path fill-rule="evenodd" clip-rule="evenodd" d="M177.009 367.55C177.028 367.523 177.049 367.496 177.067 367.47C177.205 367.278 177.332 367.082 177.446 366.884C177.462 366.859 177.473 366.833 177.489 366.808C177.583 366.639 177.667 366.471 177.742 366.302C177.765 366.25 177.787 366.2 177.809 366.15C177.89 365.956 177.961 365.763 178.015 365.57C178.182 364.973 178.218 364.37 178.139 363.792C178.087 363.412 177.97 363.052 177.825 362.704C177.531 361.998 177.071 361.363 176.456 360.88C176.316 360.77 176.155 360.682 176 360.588C175.889 360.52 175.788 360.44 175.67 360.381C175.398 360.246 175.108 360.136 174.804 360.054H174.801C174.469 359.965 174.136 359.921 173.806 359.906C173.734 359.903 173.663 359.914 173.59 359.914C173.322 359.914 173.058 359.93 172.798 359.976C172.747 359.985 172.697 360 172.647 360.011C172.36 360.07 172.083 360.156 171.814 360.268L171.759 360.292C170.537 360.817 169.549 361.84 169.169 363.2C168.502 365.591 169.557 369.428 171.999 370.083C173.133 370.387 174.365 369.947 175.429 369.154C175.43 369.153 175.432 369.152 175.434 369.15C175.836 368.85 176.213 368.499 176.552 368.117C176.565 368.102 176.577 368.086 176.591 368.071C176.738 367.903 176.877 367.727 177.009 367.55Z" fill="black"/>
<path fill-rule="evenodd" clip-rule="evenodd" d="M182.657 396.602L180.201 434.879H177.496L175.2 396.912L172.785 397.013L171.309 435.815L169.222 435.768L166.02 397.295L165.55 392.554L182.598 392.772L182.657 396.602Z" fill="#FFCA00"/>
<path fill-rule="evenodd" clip-rule="evenodd" d="M180.201 434.879L186.146 435.52L185.932 436.422H177.224L177.497 434.879H180.201Z" fill="#2D109F"/>
<path fill-rule="evenodd" clip-rule="evenodd" d="M171.308 435.815V436.902L163.141 437.205V436.204L169.223 435.768L171.308 435.815Z" fill="#2D109F"/>
<path fill-rule="evenodd" clip-rule="evenodd" d="M347.321 419.147H449.653V359.501H347.321V419.147Z" fill="white"/>
<path fill-rule="evenodd" clip-rule="evenodd" d="M398.529 411.322H444.181V367.037H398.529V411.322Z" fill="#250F8A"/>
<path fill-rule="evenodd" clip-rule="evenodd" d="M353.115 371.216H392.983V367.456H353.115V371.216Z" fill="#250F8A"/>
<path fill-rule="evenodd" clip-rule="evenodd" d="M353.115 380.406H392.983V376.647H353.115V380.406Z" fill="#250F8A"/>
<path fill-rule="evenodd" clip-rule="evenodd" d="M353.115 389.597H392.983V385.837H353.115V389.597Z" fill="#250F8A"/>
<path fill-rule="evenodd" clip-rule="evenodd" d="M353.115 398.789H392.983V395.029H353.115V398.789Z" fill="#250F8A"/>
<path fill-rule="evenodd" clip-rule="evenodd" d="M353.115 407.979H392.983V404.22H353.115V407.979Z" fill="#250F8A"/>
<path fill-rule="evenodd" clip-rule="evenodd" d="M273.75 252.49C274.204 252.843 274.689 253.194 275.245 253.329C275.242 253.477 275.222 253.62 275.233 253.77C275.446 256.536 278.027 260.191 280.851 259.983C281.055 259.969 281.252 259.929 281.447 259.877V259.876C282.212 259.671 282.9 259.19 283.483 258.549C283.501 258.529 283.52 258.512 283.538 258.492C283.63 258.387 283.719 258.277 283.806 258.165C283.834 258.128 283.864 258.092 283.891 258.055C283.97 257.95 284.043 257.842 284.116 257.732C284.15 257.682 284.183 257.632 284.216 257.581C284.282 257.476 284.344 257.369 284.405 257.262C284.44 257.2 284.476 257.138 284.508 257.076C284.563 256.972 284.616 256.867 284.666 256.761C284.7 256.689 284.734 256.617 284.767 256.544C284.811 256.444 284.853 256.342 284.895 256.241C284.928 256.159 284.958 256.076 284.988 255.994C285.024 255.897 285.058 255.801 285.09 255.703C285.119 255.612 285.146 255.523 285.171 255.432C285.197 255.34 285.224 255.25 285.248 255.157C285.272 255.059 285.293 254.962 285.313 254.864C285.331 254.778 285.35 254.694 285.366 254.608C285.384 254.503 285.398 254.399 285.411 254.294C285.422 254.218 285.434 254.14 285.443 254.064C285.454 253.947 285.459 253.832 285.465 253.719C285.467 253.657 285.473 253.593 285.475 253.532C285.476 253.461 285.472 253.396 285.47 253.328C285.847 253.49 286.262 253.584 286.699 253.584C288.381 253.584 289.745 252.249 289.745 250.602C289.745 248.955 288.381 247.62 286.699 247.62C285.338 247.62 284.199 248.5 283.809 249.707C283.768 249.669 283.734 249.624 283.692 249.588C283.443 249.378 283.173 249.192 282.888 249.032C282.316 248.712 281.678 248.498 281.001 248.413C280.664 248.37 280.316 248.36 279.964 248.387C277.918 248.537 276.257 249.85 275.569 251.609C275.151 251.566 274.733 251.524 274.312 251.515C273.917 251.506 273.38 251.653 273.414 252.039C273.431 252.23 273.598 252.371 273.75 252.49Z" fill="#E5FDFD"/>
<path fill-rule="evenodd" clip-rule="evenodd" d="M257.926 250.376L260.412 252.859C259.495 252.206 258.636 251.573 257.868 250.988L257.926 250.376ZM325.612 292.448L309.275 293.175L298.05 275.251L298.287 275.098L285.573 261.726L282.793 261.432L265.838 253.212L259.732 247.774L257.996 249.635L261.526 212.234L210.705 207.634C210.901 207.183 211.009 206.687 211.009 206.165C211.009 204.296 209.611 202.757 207.783 202.47V127.035H206.565V202.47C204.738 202.757 203.339 204.296 203.339 206.165C203.339 206.444 203.374 206.714 203.434 206.976L159.521 203.003L154.662 254.476L256.667 263.707L257.468 255.238C260.874 258.344 265.279 261.86 267.522 262.815L275.805 266.337L285.342 282.97L285.278 283.01L285.43 283.128L285.524 283.291L285.591 283.249L285.898 283.484L288.575 306.062L291.823 325.943L285.731 326.739L286.21 328.412H295.096L294.236 305.955L295.744 291.018L306.801 299.477L324.942 295.405L326.699 299.91L328.12 299.313L325.612 292.448Z" fill="#E5FDFD"/>
<path fill-rule="evenodd" clip-rule="evenodd" d="M130.295 254.476L232.3 263.707L237.16 212.234L135.153 203.003L130.295 254.476Z" fill="#02ECF1"/>
<path fill-rule="evenodd" clip-rule="evenodd" d="M235.366 247.774L241.471 253.213L261.596 262.968L252.743 265.173L239.421 256.227L233.238 250.055L235.366 247.774Z" fill="#FF7E6E"/>
<path fill-rule="evenodd" clip-rule="evenodd" d="M261.094 253.019C261.306 255.784 259.31 259.777 256.485 259.983C253.661 260.192 251.078 256.535 250.866 253.77C250.654 251.005 252.771 248.594 255.596 248.387C258.42 248.179 260.882 250.254 261.094 253.019Z" fill="#FFD0D4"/>
<path fill-rule="evenodd" clip-rule="evenodd" d="M231.062 246.763C231.039 246.765 230.19 246.335 230.19 246.335L229.369 247.653L225.2 245.363L223.816 246.872L229.696 251.221L230.978 249.646L230.31 248.756L230.583 247.782L231.062 246.763Z" fill="#FFD0D4"/>
<path fill-rule="evenodd" clip-rule="evenodd" d="M272.448 280.413L269.868 305.956L270.728 328.412H261.842L261.365 326.738L267.456 325.944L264.207 306.061L261.277 281.335L272.448 280.413Z" fill="#250F8A"/>
<path fill-rule="evenodd" clip-rule="evenodd" d="M231.058 249.001C233.641 251.365 242.865 257.887 246.259 258.859L253.364 260.895L261.207 261.726L273.919 275.098L261.158 283.291L251.437 266.337L243.156 262.815C239.751 261.367 231.357 254.012 229.049 251.165L231.058 249.001Z" fill="#FA7564"/>
<path fill-rule="evenodd" clip-rule="evenodd" d="M251.595 251.639C251.048 251.568 250.497 251.527 249.945 251.515C249.549 251.506 249.012 251.653 249.047 252.04C249.064 252.23 249.23 252.371 249.384 252.491C249.896 252.89 250.446 253.304 251.096 253.383C251.645 253.45 252.22 253.25 252.603 252.862C252.949 252.512 253.192 251.987 253.005 251.542C252.541 251.679 252.078 251.702 251.595 251.639Z" fill="#FFD0D4"/>
<path fill-rule="evenodd" clip-rule="evenodd" d="M59.8985 390.563H81.0146C81.4983 390.563 81.9368 390.284 82.1318 389.848C82.3255 389.413 82.2377 388.908 81.9088 388.559L61.604 367.088L59.8168 368.709L78.226 388.178H59.8985V390.563Z" fill="#250F8A"/>
<path fill-rule="evenodd" clip-rule="evenodd" d="M257.08 259.877C259.584 259.203 261.291 255.585 261.095 253.019C260.883 250.254 258.42 248.179 255.597 248.387C255.426 248.399 255.268 248.445 255.103 248.473C254.989 248.882 254.95 249.315 255.021 249.671C255.3 251.062 256.346 252.336 257.659 252.933C257.659 252.933 257.65 259.068 257.08 259.877Z" fill="#FA7564"/>
<path fill-rule="evenodd" clip-rule="evenodd" d="M258.35 253.495C258.776 253.493 259.192 253.654 259.533 253.903C260.633 254.704 259.962 256.396 258.83 256.803C258.465 256.936 258.069 256.969 257.679 256.952C257.342 256.938 256.988 256.878 256.728 256.668C256.477 256.464 256.348 256.141 256.329 255.821C256.312 255.503 256.396 255.186 256.51 254.886C256.77 254.204 257.581 253.499 258.35 253.495Z" fill="#FFD0D4"/>
<path fill-rule="evenodd" clip-rule="evenodd" d="M301.245 292.448L284.91 293.175L273.525 274.998L260.911 283.01L282.435 299.477L300.574 295.406L302.332 299.91L303.754 299.314L301.245 292.448Z" fill="#472BC7"/>
<path fill-rule="evenodd" clip-rule="evenodd" d="M265.378 250.602C265.378 252.249 264.015 253.584 262.332 253.584C260.65 253.584 259.287 252.249 259.287 250.602C259.287 248.956 260.65 247.62 262.332 247.62C264.015 247.62 265.378 248.956 265.378 250.602Z" fill="#FA7564"/>
<path fill-rule="evenodd" clip-rule="evenodd" d="M61.2468 397.833H80.2103V146.522H61.2468V397.833ZM58.8103 400.219H82.6468V144.136H58.8103V400.219Z" fill="#250F8A"/>
<path fill-rule="evenodd" clip-rule="evenodd" d="M55.5466 408.968H85.9093V387.664H55.5466V408.968Z" fill="#472BC7"/>
<path fill-rule="evenodd" clip-rule="evenodd" d="M59.8985 302.395H81.0146C81.4983 302.395 81.9368 302.114 82.1318 301.679C82.3255 301.245 82.2377 300.739 81.9088 300.391L61.604 278.919L59.8168 280.539L78.226 300.009H59.8985V302.395Z" fill="#250F8A"/>
<path fill-rule="evenodd" clip-rule="evenodd" d="M59.8985 324.436H81.0146C81.4983 324.436 81.9368 324.156 82.1318 323.721C82.3255 323.286 82.2377 322.781 81.9088 322.432L61.604 300.961L59.8168 302.582L78.226 322.051H59.8985V324.436Z" fill="#250F8A"/>
<path fill-rule="evenodd" clip-rule="evenodd" d="M59.8985 346.479H81.0146C81.4983 346.479 81.9368 346.199 82.1318 345.763C82.3255 345.329 82.2377 344.823 81.9088 344.475L61.604 323.003L59.8168 324.625L78.226 344.093H59.8985V346.479Z" fill="#250F8A"/>
<path fill-rule="evenodd" clip-rule="evenodd" d="M59.8985 368.521H81.0146C81.4983 368.521 81.9368 368.241 82.1318 367.806C82.3255 367.371 82.2377 366.866 81.9088 366.517L61.604 345.046L59.8168 346.667L78.226 366.136H59.8985V368.521Z" fill="#250F8A"/>
<path fill-rule="evenodd" clip-rule="evenodd" d="M59.8985 280.881H81.0146C81.4983 280.881 81.9368 280.601 82.1318 280.166C82.3255 279.731 82.2377 279.225 81.9088 278.878L61.604 257.406L59.8168 259.026L78.226 278.495H59.8985V280.881Z" fill="#250F8A"/>
<path fill-rule="evenodd" clip-rule="evenodd" d="M59.8985 259.368H81.0146C81.4983 259.368 81.9368 259.087 82.1318 258.652C82.3255 258.218 82.2377 257.712 81.9088 257.365L61.604 235.892L59.8168 237.512L78.226 256.982H59.8985V259.368Z" fill="#250F8A"/>
<path fill-rule="evenodd" clip-rule="evenodd" d="M59.8985 237.855H81.0146C81.4983 237.855 81.9368 237.575 82.1318 237.139C82.3255 236.705 82.2377 236.199 81.9088 235.852L61.604 214.38L59.8168 216L78.226 235.469H59.8985V237.855Z" fill="#250F8A"/>
<path fill-rule="evenodd" clip-rule="evenodd" d="M59.8985 216.341H81.0146C81.4983 216.341 81.9368 216.061 82.1318 215.626C82.3255 215.191 82.2377 214.686 81.9088 214.339L61.604 192.866L59.8168 194.486L78.226 213.956H59.8985V216.341Z" fill="#250F8A"/>
<path fill-rule="evenodd" clip-rule="evenodd" d="M59.8985 194.828H81.0146C81.4983 194.828 81.9368 194.548 82.1318 194.113C82.3255 193.678 82.2377 193.173 81.9088 192.825L61.604 171.353L59.8168 172.973L78.226 192.442H59.8985V194.828Z" fill="#250F8A"/>
<path fill-rule="evenodd" clip-rule="evenodd" d="M59.8985 173.315H81.0146C81.4983 173.315 81.9368 173.035 82.1318 172.599C82.3255 172.165 82.2377 171.659 81.9088 171.312L61.604 149.84L59.8168 151.46L78.226 170.929H59.8985V173.315Z" fill="#250F8A"/>
<path fill-rule="evenodd" clip-rule="evenodd" d="M59.8985 151.802H81.0146C81.4983 151.802 81.9368 151.522 82.1318 151.086C82.3255 150.652 82.2377 150.146 81.9088 149.799L61.604 128.326L59.8168 129.946L78.226 149.416H59.8985V151.802Z" fill="#0089C7"/>
<path fill-rule="evenodd" clip-rule="evenodd" d="M58.8505 152.23H97.4926V120.33H58.8505V152.23Z" fill="#472BC7"/>
<path fill-rule="evenodd" clip-rule="evenodd" d="M0.780762 138.653H39.4228V120.33H0.780762V138.653Z" fill="#472BC7"/>
<path fill-rule="evenodd" clip-rule="evenodd" d="M1.42182 122.661H192.283C192.956 122.661 193.502 122.126 193.502 121.468C193.502 120.809 192.956 120.275 192.283 120.275H1.42182C0.749334 120.275 0.203552 120.809 0.203552 121.468C0.203552 122.126 0.749334 122.661 1.42182 122.661Z" fill="#250F8A"/>
<path fill-rule="evenodd" clip-rule="evenodd" d="M182.198 204.575H183.417V127.035H182.198V204.575Z" fill="#472BC7"/>
<path fill-rule="evenodd" clip-rule="evenodd" d="M45.1913 414.534H96.2658V405.16H45.1913V414.534Z" fill="#250F8A"/>
<path fill-rule="evenodd" clip-rule="evenodd" d="M78.0296 122.348C78.1855 122.348 78.3415 122.29 78.4609 122.174L88.637 112.209H181.939L191.506 121.578C191.745 121.81 192.13 121.81 192.368 121.578C192.606 121.344 192.606 120.967 192.368 120.733L182.443 111.016H88.1327L77.5983 121.33C77.3608 121.563 77.3608 121.94 77.5983 122.174C77.7177 122.29 77.8737 122.348 78.0296 122.348Z" fill="#250F8A"/>
<path fill-rule="evenodd" clip-rule="evenodd" d="M0.608673 122.348C0.82796 122.348 1.03994 122.231 1.14836 122.029L11.333 102.978H36.0321L45.6089 121.426C45.7611 121.718 46.1291 121.834 46.4275 121.687C46.7272 121.538 46.8478 121.179 46.6956 120.885L36.7789 101.785H10.596L0.0702011 121.475C-0.0869548 121.767 0.0287801 122.128 0.327255 122.28C0.417406 122.327 0.513649 122.348 0.608673 122.348Z" fill="#250F8A"/>
<path fill-rule="evenodd" clip-rule="evenodd" d="M178.341 127.035C178.341 129.451 180.341 131.41 182.808 131.41C185.274 131.41 187.274 129.451 187.274 127.035C187.274 124.619 185.274 122.661 182.808 122.661C180.341 122.661 178.341 124.619 178.341 127.035Z" fill="#472BC7"/>
<path fill-rule="evenodd" clip-rule="evenodd" d="M156.396 112.2C156.657 112.2 156.9 112.034 156.979 111.778C157.077 111.463 156.896 111.129 156.574 111.033L66.3827 84.1042C66.245 84.0648 66.0976 84.0708 65.9673 84.1257L23.2208 101.792C22.9102 101.919 22.7652 102.269 22.8956 102.573C23.0271 102.877 23.3841 103.019 23.6935 102.89L66.2377 85.3091L156.219 112.174C156.278 112.192 156.338 112.2 156.396 112.2Z" fill="#250F8A"/>
<path fill-rule="evenodd" clip-rule="evenodd" d="M80.3943 122.428C80.538 122.428 80.6842 122.403 80.8268 122.349C81.4566 122.115 81.7721 121.427 81.5334 120.81L67.3308 84.2188C67.1396 83.7225 66.6389 83.41 66.0931 83.4541C65.5522 83.497 65.1051 83.8859 64.9979 84.4072L57.6566 120.095C57.5238 120.74 57.9514 121.37 58.6105 121.5C59.2684 121.626 59.9128 121.211 60.0456 120.566L66.5536 88.9296L79.2552 121.659C79.4404 122.135 79.9033 122.428 80.3943 122.428Z" fill="#250F8A"/>
<path fill-rule="evenodd" clip-rule="evenodd" d="M63.7377 84.6425C63.7377 85.9702 64.8365 87.0462 66.1925 87.0462C67.5484 87.0462 68.6473 85.9702 68.6473 84.6425C68.6473 83.3148 67.5484 82.2388 66.1925 82.2388C64.8365 82.2388 63.7377 83.3148 63.7377 84.6425Z" fill="#472BC7"/>
<path fill-rule="evenodd" clip-rule="evenodd" d="M169.238 122.462C169.372 122.462 169.507 122.419 169.621 122.33L181.583 112.861V121.714C181.583 122.043 181.856 122.31 182.192 122.31C182.529 122.31 182.801 122.043 182.801 121.714V111.612C182.801 111.382 182.666 111.173 182.455 111.074C182.244 110.974 181.992 111.003 181.809 111.148L168.854 121.401C168.593 121.609 168.552 121.985 168.764 122.24C168.884 122.387 169.06 122.462 169.238 122.462Z" fill="#250F8A"/>
<path fill-rule="evenodd" clip-rule="evenodd" d="M157.67 122.462C157.804 122.462 157.939 122.419 158.053 122.33L170.016 112.861V121.714C170.016 122.043 170.288 122.31 170.625 122.31C170.961 122.31 171.234 122.043 171.234 121.714V111.612C171.234 111.382 171.099 111.173 170.887 111.074C170.677 110.974 170.425 111.003 170.241 111.148L157.286 121.401C157.024 121.609 156.984 121.985 157.196 122.24C157.316 122.387 157.492 122.462 157.67 122.462Z" fill="#250F8A"/>
<path fill-rule="evenodd" clip-rule="evenodd" d="M146.102 122.462C146.236 122.462 146.371 122.419 146.484 122.33L158.448 112.861V121.714C158.448 122.043 158.719 122.31 159.057 122.31C159.393 122.31 159.666 122.043 159.666 121.714V111.612C159.666 111.382 159.531 111.173 159.319 111.074C159.109 110.974 158.857 111.003 158.673 111.148L145.718 121.401C145.456 121.609 145.416 121.985 145.628 122.24C145.747 122.387 145.924 122.462 146.102 122.462Z" fill="#250F8A"/>
<path fill-rule="evenodd" clip-rule="evenodd" d="M134.534 122.462C134.668 122.462 134.804 122.419 134.917 122.33L146.879 112.861V121.714C146.879 122.043 147.152 122.31 147.488 122.31C147.826 122.31 148.097 122.043 148.097 121.714V111.612C148.097 111.382 147.962 111.173 147.751 111.074C147.541 110.974 147.29 111.003 147.106 111.148L134.151 121.401C133.889 121.609 133.848 121.985 134.06 122.24C134.18 122.387 134.356 122.462 134.534 122.462Z" fill="#250F8A"/>
<path fill-rule="evenodd" clip-rule="evenodd" d="M122.966 122.462C123.1 122.462 123.235 122.419 123.349 122.33L135.312 112.861V121.714C135.312 122.043 135.584 122.31 135.921 122.31C136.257 122.31 136.53 122.043 136.53 121.714V111.612C136.53 111.382 136.395 111.173 136.183 111.074C135.972 110.974 135.721 111.003 135.537 111.148L122.582 121.401C122.321 121.609 122.28 121.985 122.492 122.24C122.612 122.387 122.788 122.462 122.966 122.462Z" fill="#250F8A"/>
<path fill-rule="evenodd" clip-rule="evenodd" d="M111.398 122.462C111.532 122.462 111.667 122.419 111.781 122.33L123.744 112.861V121.714C123.744 122.043 124.016 122.31 124.353 122.31C124.689 122.31 124.962 122.043 124.962 121.714V111.612C124.962 111.382 124.827 111.173 124.615 111.074C124.405 110.974 124.153 111.003 123.969 111.148L111.014 121.401C110.752 121.609 110.712 121.985 110.924 122.24C111.044 122.387 111.22 122.462 111.398 122.462Z" fill="#250F8A"/>
<path fill-rule="evenodd" clip-rule="evenodd" d="M99.8305 122.462C99.9645 122.462 100.1 122.419 100.213 122.33L112.176 112.861V121.714C112.176 122.043 112.448 122.31 112.786 122.31C113.122 122.31 113.395 122.043 113.395 121.714V111.612C113.395 111.382 113.259 111.173 113.047 111.074C112.838 110.974 112.586 111.003 112.402 111.148L99.4468 121.401C99.1849 121.609 99.1447 121.985 99.3566 122.24C99.476 122.387 99.6527 122.462 99.8305 122.462Z" fill="#250F8A"/>
<path fill-rule="evenodd" clip-rule="evenodd" d="M88.2623 122.462C88.3963 122.462 88.5315 122.419 88.6448 122.33L100.608 112.861V121.714C100.608 122.043 100.88 122.31 101.217 122.31C101.554 122.31 101.826 122.043 101.826 121.714V111.612C101.826 111.382 101.691 111.173 101.479 111.074C101.268 110.974 101.016 111.003 100.834 111.148L87.8785 121.401C87.6166 121.609 87.5764 121.985 87.7884 122.24C87.9078 122.387 88.0844 122.462 88.2623 122.462Z" fill="#250F8A"/>
<path fill-rule="evenodd" clip-rule="evenodd" d="M19.8754 122.462C20.0484 122.462 20.2202 122.391 20.3408 122.251L35.8773 104.296V121.714C35.8773 122.043 36.1502 122.311 36.4865 122.311C36.8239 122.311 37.0956 122.043 37.0956 121.714V102.67C37.0956 102.42 36.936 102.196 36.6972 102.11C36.456 102.023 36.188 102.093 36.0223 102.284L19.4113 121.48C19.1932 121.731 19.2261 122.108 19.4819 122.32C19.5965 122.416 19.7366 122.462 19.8754 122.462Z" fill="#250F8A"/>
<path fill-rule="evenodd" clip-rule="evenodd" d="M7.92602 122.462C8.12338 122.462 8.31708 122.368 8.43404 122.195L20.2731 104.654V121.714C20.2731 122.043 20.5448 122.311 20.8822 122.311C21.2185 122.311 21.4914 122.043 21.4914 121.714V102.67C21.4914 102.407 21.3147 102.174 21.0577 102.099C20.797 102.025 20.5216 102.122 20.3742 102.341L7.41801 121.536C7.23283 121.812 7.3108 122.182 7.591 122.363C7.69455 122.43 7.81029 122.462 7.92602 122.462Z" fill="#250F8A"/>
<path fill-rule="evenodd" clip-rule="evenodd" d="M178.972 206.166C178.972 208.24 180.69 209.921 182.807 209.921C184.925 209.921 186.643 208.24 186.643 206.166C186.643 204.091 184.925 202.411 182.807 202.411C180.69 202.411 178.972 204.091 178.972 206.166Z" fill="#472BC7"/>
<path fill-rule="evenodd" clip-rule="evenodd" d="M495.474 301.486L494.496 288.261L496.006 278.527L501.136 249.842L498.658 249.495L492.996 274.797L484.146 275.49L474.942 249.842L472.464 250.188L479.191 277.57L481.55 288.037L481.274 300.793L495.474 301.486Z" fill="white"/>
<path fill-rule="evenodd" clip-rule="evenodd" d="M483.101 268.196C483.101 270.676 485.153 274.105 487.686 274.105C490.219 274.105 492.271 270.676 492.271 268.196C492.271 265.716 490.219 263.706 487.686 263.706C485.153 263.706 483.101 265.716 483.101 268.196Z" fill="#FFD0D4"/>
<path fill-rule="evenodd" clip-rule="evenodd" d="M489.617 268.809C489.873 268.495 490.28 268.274 490.687 268.329C490.78 268.342 490.873 268.37 490.956 268.415C491.18 268.54 491.305 268.79 491.352 269.038C491.478 269.723 491.074 270.436 490.473 270.81C490.303 270.917 490.115 271 489.914 271.024C489.713 271.047 489.5 271.004 489.344 270.877C488.771 270.412 489.249 269.26 489.617 268.809Z" fill="#FFD0D4"/>
<path fill-rule="evenodd" clip-rule="evenodd" d="M489.613 268.559C489.717 268.608 489.837 268.655 489.943 268.613C490.051 268.572 490.107 268.46 490.177 268.371C490.453 268.019 491.057 268.019 491.377 268.331C491.699 268.644 491.731 269.177 491.509 269.563C491.286 269.949 490.851 270.19 490.403 270.254C490.108 271.284 489.987 272.36 490.045 273.428C490.774 273.48 491.504 273.533 492.233 273.585C492.375 273.596 492.531 273.602 492.643 273.517C492.748 273.436 492.786 273.299 492.814 273.171C493.087 271.947 493.222 270.693 493.219 269.44C493.217 268.218 493.068 266.952 492.425 265.906C491.654 264.655 488.492 262.595 486.949 263.749C485.251 265.022 488.436 268.006 489.613 268.559Z" fill="black"/>
<path fill-rule="evenodd" clip-rule="evenodd" d="M485.745 266.73C485.052 267.757 484.053 268.638 482.836 268.95C482.485 267.618 482.79 266.136 483.64 265.042C484.119 264.426 485.849 262.923 486.77 263.276C487.723 263.642 486.215 266.034 485.745 266.73Z" fill="black"/>
<path fill-rule="evenodd" clip-rule="evenodd" d="M494.956 292.105L481.419 291.485L471.004 337.161L466.172 334.28L472.054 341.275L485.922 303.627L485.711 320.702L495.113 332.901L495.714 337.304L495.963 339.176L497.639 338.981L497.943 332.271L490.666 320.682L495.801 301.498L494.956 292.105Z" fill="#250F8A"/>
<path fill-rule="evenodd" clip-rule="evenodd" d="M495.812 262.217L498.743 263.224L501.137 249.842L498.659 249.494L495.812 262.217Z" fill="#FFD0D4"/>
<path fill-rule="evenodd" clip-rule="evenodd" d="M478.743 260.432L475.307 261.76L472.465 250.188L474.943 249.841L478.743 260.432Z" fill="#FFD0D4"/>
<path fill-rule="evenodd" clip-rule="evenodd" d="M490.227 275.014L487.686 279.432L486.407 275.313L490.227 275.014Z" fill="#FFD0D4"/>
<path fill-rule="evenodd" clip-rule="evenodd" d="M471.356 248.455C471.356 249.604 472.307 250.534 473.481 250.534C474.654 250.534 475.604 249.604 475.604 248.455C475.604 247.306 474.654 246.376 473.481 246.376C472.307 246.376 471.356 247.306 471.356 248.455Z" fill="#FFD0D4"/>
<path fill-rule="evenodd" clip-rule="evenodd" d="M498.019 248.844C498.019 249.992 498.969 250.923 500.142 250.923C501.315 250.923 502.266 249.992 502.266 248.844C502.266 247.695 501.315 246.764 500.142 246.764C498.969 246.764 498.019 247.695 498.019 248.844Z" fill="#FFD0D4"/>
<path fill-rule="evenodd" clip-rule="evenodd" d="M342.002 162.579H277.999C275.799 162.579 274 160.791 274 158.606V155.794C274 153.609 275.799 151.821 277.999 151.821H342.002C344.202 151.821 346 153.609 346 155.794V158.606C346 160.791 344.202 162.579 342.002 162.579Z" fill="white"/>
<path fill-rule="evenodd" clip-rule="evenodd" d="M17.3818 468.276L17.3331 471.855L163.512 473.759L195.179 458.069L195.227 454.49L17.3818 468.276Z" fill="#FFCA00"/>
<path fill-rule="evenodd" clip-rule="evenodd" d="M163.512 473.759L17.3327 471.855L49.0002 456.167L195.18 458.07L163.512 473.759Z" fill="#FFCA00"/>
<path fill-rule="evenodd" clip-rule="evenodd" d="M163.56 470.179L17.3822 468.276L49.0485 452.587L195.228 454.491L163.56 470.179Z" fill="white"/>
<path fill-rule="evenodd" clip-rule="evenodd" d="M129.607 456.394L49.2858 455.347L51.6809 454.16L132.001 455.207L129.607 456.394Z" fill="#FA7564"/>
<path fill-rule="evenodd" clip-rule="evenodd" d="M123.621 459.358L43.2993 458.313L45.6944 457.126L126.016 458.172L123.621 459.358Z" fill="#FA7564"/>
<path fill-rule="evenodd" clip-rule="evenodd" d="M117.874 462.205L37.5524 461.16L39.9475 459.973L120.269 461.02L117.874 462.205Z" fill="#FA7564"/>
<path fill-rule="evenodd" clip-rule="evenodd" d="M112.366 464.935L32.0452 463.889L34.4403 462.702L114.762 463.748L112.366 464.935Z" fill="#FA7564"/>
<path fill-rule="evenodd" clip-rule="evenodd" d="M163.452 467.912L111.502 467.237L135.685 455.254L187.637 455.931L163.452 467.912Z" fill="#FA7564"/>
<path fill-rule="evenodd" clip-rule="evenodd" d="M42.2295 503.235L42.1808 506.814L188.359 508.718L220.026 493.029L220.075 489.45L42.2295 503.235Z" fill="#2D109F"/>
<path fill-rule="evenodd" clip-rule="evenodd" d="M188.359 508.718L42.181 506.814L73.8473 491.125L220.027 493.029L188.359 508.718Z" fill="#2D109F"/>
<path fill-rule="evenodd" clip-rule="evenodd" d="M188.408 505.138L42.2299 503.234L73.8962 487.546L220.076 489.45L188.408 505.138Z" fill="white"/>
<path fill-rule="evenodd" clip-rule="evenodd" d="M154.455 491.352L74.1335 490.307L76.5274 489.12L156.849 490.166L154.455 491.352Z" fill="#FA7564"/>
<path fill-rule="evenodd" clip-rule="evenodd" d="M148.468 494.317L68.147 493.272L70.5421 492.085L150.862 493.132L148.468 494.317Z" fill="#FA7564"/>
<path fill-rule="evenodd" clip-rule="evenodd" d="M142.721 497.165L62.4 496.12L64.7951 494.933L145.116 495.979L142.721 497.165Z" fill="#FA7564"/>
<path fill-rule="evenodd" clip-rule="evenodd" d="M137.214 499.894L56.8929 498.848L59.288 497.661L139.608 498.707L137.214 499.894Z" fill="#FA7564"/>
<path fill-rule="evenodd" clip-rule="evenodd" d="M188.3 502.871L136.348 502.196L160.533 490.213L212.485 490.89L188.3 502.871Z" fill="#FA7564"/>
<path fill-rule="evenodd" clip-rule="evenodd" d="M271.877 191.155H363.247V181.612H271.877V191.155Z" fill="#E5FDFD"/>
<path fill-rule="evenodd" clip-rule="evenodd" d="M271.877 239.603H363.247V199.506H271.877V239.603Z" fill="#E5FDFD"/>
<path fill-rule="evenodd" clip-rule="evenodd" d="M251.415 450.588L255.619 457.029L259.708 469.373L272.092 488.856L270.199 489.362L255.449 473.211L248.249 459.579L251.415 450.588Z" fill="#E7F8FC"/>
<path fill-rule="evenodd" clip-rule="evenodd" d="M225.928 459.287L210.181 484.991L212.227 485.706L231.241 461.934L225.928 459.287Z" fill="#2D109F"/>
<path fill-rule="evenodd" clip-rule="evenodd" d="M219.126 453.914C221.879 454.368 225.318 457.24 224.866 460.006C224.413 462.774 220.24 464.388 217.487 463.933C214.734 463.478 212.869 460.866 213.322 458.1C213.774 455.333 216.373 453.459 219.126 453.914Z" fill="#FFD0D4"/>
<path fill-rule="evenodd" clip-rule="evenodd" d="M215.572 462.725C215.377 463.234 215.208 463.755 215.068 464.282C214.969 464.66 214.988 465.213 215.373 465.271C215.564 465.3 215.74 465.173 215.892 465.055C216.402 464.657 216.934 464.226 217.162 463.62C217.353 463.107 217.293 462.508 217.003 462.046C216.741 461.63 216.284 461.271 215.805 461.344C215.833 461.824 215.746 462.274 215.572 462.725Z" fill="#FFD0D4"/>
<path fill-rule="evenodd" clip-rule="evenodd" d="M224.899 459.408C224.821 456.839 221.68 454.335 219.126 453.913C216.373 453.459 213.774 455.333 213.322 458.099C213.295 458.267 213.302 458.428 213.291 458.595C213.664 458.802 214.078 458.942 214.444 458.959C215.87 459.022 217.357 458.319 218.245 457.198C218.245 457.198 224.241 458.667 224.899 459.408Z" fill="black"/>
<path fill-rule="evenodd" clip-rule="evenodd" d="M218.955 456.666C219.051 456.256 219.305 455.894 219.628 455.626C220.666 454.759 222.165 455.807 222.301 456.993C222.345 457.376 222.286 457.766 222.179 458.136C222.086 458.456 221.947 458.782 221.68 458.983C221.423 459.177 221.077 459.224 220.761 459.165C220.444 459.106 220.154 458.95 219.887 458.769C219.28 458.356 218.78 457.408 218.955 456.666Z" fill="#FFD0D4"/>
<path fill-rule="evenodd" clip-rule="evenodd" d="M224.354 472.901L214.691 489.769L216.895 489.939L229.271 477.332L230.966 461.145C230.966 461.145 230.966 456.203 228.762 456.544C226.558 456.885 225.541 459.611 225.541 459.611L224.354 472.901Z" fill="#1E0880"/>
<path fill-rule="evenodd" clip-rule="evenodd" d="M224.622 456.703C234.604 451.738 245.968 450.192 245.968 450.192L251.408 460.881L226.897 464.893L224.622 456.703Z" fill="#1E0880"/>
<path fill-rule="evenodd" clip-rule="evenodd" d="M245.968 450.191L247.491 450.138C251.6 449.996 255.006 453.309 255 457.442L246.899 472.17L248.375 493.348H246.171L241.362 473.351L245.968 450.191Z" fill="white"/>
<path fill-rule="evenodd" clip-rule="evenodd" d="M212.862 487.537C212.862 488.974 211.756 490.139 210.39 490.139C209.026 490.139 207.918 488.974 207.918 487.537C207.918 486.101 209.026 484.934 210.39 484.934C211.756 484.934 212.862 486.101 212.862 487.537Z" fill="#FFD0D4"/>
<path fill-rule="evenodd" clip-rule="evenodd" d="M218.481 490.143C218.481 491.579 217.375 492.745 216.009 492.745C214.645 492.745 213.537 491.579 213.537 490.143C213.537 488.705 214.645 487.54 216.009 487.54C217.375 487.54 218.481 488.705 218.481 490.143Z" fill="#FFD0D4"/>
<path fill-rule="evenodd" clip-rule="evenodd" d="M248.376 493.348L248.781 495.451L238.19 495.687C238.19 495.687 238.778 494.15 239.132 494.269C239.485 494.386 246.171 493.348 246.171 493.348H248.376Z" fill="#250F8A"/>
<path fill-rule="evenodd" clip-rule="evenodd" d="M271.014 489.505L272.054 491.859L262.495 492.098L262.73 490.916L269.149 490.016L271.014 489.505Z" fill="#250F8A"/>
</svg>
